<?xml version="1.0" encoding="UTF-8" standalone="no"?>
<!-- Generated by graphviz version 6.0.2 (20221126.1951)
 -->

<!-- Title: dag Pages: 1 -->

<svg
   width="1709pt"
   height="836pt"
   viewBox="0.00 0.00 1708.76 836.00"
   version="1.1"
   id="svg3385"
   sodipodi:docname="dag_try3.svg"
   inkscape:version="1.2.2 (732a01da63, 2022-12-09)"
   xmlns:inkscape="http://www.inkscape.org/namespaces/inkscape"
   xmlns:sodipodi="http://sodipodi.sourceforge.net/DTD/sodipodi-0.dtd"
   xmlns="http://www.w3.org/2000/svg"
   xmlns:svg="http://www.w3.org/2000/svg">
  <defs
     id="defs3389" />
  <sodipodi:namedview
     id="namedview3387"
     pagecolor="#505050"
     bordercolor="#eeeeee"
     borderopacity="1"
     inkscape:showpageshadow="0"
     inkscape:pageopacity="0"
     inkscape:pagecheckerboard="0"
     inkscape:deskcolor="#505050"
     inkscape:document-units="pt"
     showgrid="false"
     inkscape:zoom="0.67643541"
     inkscape:cx="1139.7984"
     inkscape:cy="675.60035"
     inkscape:window-width="1920"
     inkscape:window-height="986"
     inkscape:window-x="-11"
     inkscape:window-y="-11"
     inkscape:window-maximized="1"
     inkscape:current-layer="svg3385" />
  <polygon
     fill="#ffffff"
     stroke="none"
     points="1704.76,-832 1704.76,4 -4,4 -4,-832 "
     id="polygon3137"
     transform="translate(4,832)" />
  <ellipse
     fill="none"
     stroke="#000000"
     cx="716.78003"
     cy="22"
     rx="75.290001"
     ry="18"
     id="ellipse3141" />
  <text
     text-anchor="middle"
     x="716.78003"
     y="25.700012"
     font-family="Times, serif"
     font-size="14px"
     id="text3143"
     style="-inkscape-font-specification:Calibri;font-family:Calibri;font-weight:normal;font-style:normal;font-stretch:normal;font-variant:normal;font-size:19.00000069px">FASTQ INPUT</text>
  <ellipse
     fill="none"
     stroke="#000000"
     cx="716.78003"
     cy="94"
     rx="81.489998"
     ry="18"
     id="ellipse3148" />
  <text
     text-anchor="middle"
     x="716.78003"
     y="97.700012"
     font-family="Times, serif"
     font-size="14px"
     id="text3150"
     style="-inkscape-font-specification:Calibri;font-family:Calibri;font-weight:normal;font-style:normal;font-stretch:normal;font-variant:normal;font-size:19.00000069px">REMOVE PHIX</text>
  <path
     fill="none"
     stroke="#000000"
     d="m 716.78,40.3 c 0,7.72 0,16.99 0,25.59"
     id="path3155" />
  <polygon
     fill="#000000"
     stroke="#000000"
     points="712.78,-756.1 709.28,-766.1 716.28,-766.1 "
     id="polygon3157"
     transform="translate(4,832)" />
  <ellipse
     fill="none"
     stroke="#000000"
     cx="716.78003"
     cy="166"
     rx="231.25999"
     ry="18"
     id="ellipse3162" />
  <text
     text-anchor="middle"
     x="716.78003"
     y="169.70001"
     font-family="Times, serif"
     font-size="14px"
     id="text3164"
     style="-inkscape-font-specification:Calibri;font-family:Calibri;font-weight:normal;font-style:normal;font-stretch:normal;font-variant:normal;font-size:19.00000069px">CLIP ADAPTERS AND DO QUALITY TRIMMING</text>
  <path
     fill="none"
     stroke="#000000"
     d="m 716.78,112.3 c 0,7.72 0,16.99 0,25.59"
     id="path3169" />
  <polygon
     fill="#000000"
     stroke="#000000"
     points="712.78,-684.1 709.28,-694.1 716.28,-694.1 "
     id="polygon3171"
     transform="translate(4,832)" />
  <ellipse
     fill="none"
     stroke="#000000"
     cx="716.78003"
     cy="238"
     rx="196.07001"
     ry="18"
     id="ellipse3176" />
  <text
     text-anchor="middle"
     x="716.78003"
     y="241.70001"
     font-family="Times, serif"
     font-size="14px"
     id="text3178"
     style="-inkscape-font-specification:Calibri;font-family:Calibri;font-weight:normal;font-style:normal;font-stretch:normal;font-variant:normal;font-size:19.00000069px">MERGE OVERLAPPING SISTER READS</text>
  <path
     fill="none"
     stroke="#000000"
     d="m 716.78,184.3 c 0,7.72 0,16.99 0,25.59"
     id="path3183" />
  <polygon
     fill="#000000"
     stroke="#000000"
     points="712.78,-612.1 709.28,-622.1 716.28,-622.1 "
     id="polygon3185"
     transform="translate(4,832)" />
  <ellipse
     fill="none"
     stroke="#000000"
     cx="232.78"
     cy="310"
     rx="228.56"
     ry="18"
     id="ellipse3190" />
  <text
     text-anchor="middle"
     x="232.78"
     y="313.70001"
     font-family="Times, serif"
     font-size="14px"
     id="text3192"
     style="-inkscape-font-specification:Calibri;font-family:Calibri;font-weight:normal;font-style:normal;font-stretch:normal;font-variant:normal;font-size:19.00000069px">TAXONOMIC CLASSIFICATION WITH KRAKEN</text>
  <path
     fill="none"
     stroke="#000000"
     d="m 616.49,253.5 c -78.41,11.34 -187.47,27.12 -269.28,38.95"
     id="path3197" />
  <polygon
     fill="#000000"
     stroke="#000000"
     points="333.12,-538.09 342.51,-542.99 343.51,-536.06 "
     id="polygon3199"
     transform="translate(4,832)" />
  <ellipse
     fill="none"
     stroke="#000000"
     cx="716.78003"
     cy="310"
     rx="237.46001"
     ry="18"
     id="ellipse3204" />
  <text
     text-anchor="middle"
     x="716.78003"
     y="313.70001"
     font-family="Times, serif"
     font-size="14px"
     id="text3206"
     style="-inkscape-font-specification:Calibri;font-family:Calibri;font-weight:normal;font-style:normal;font-stretch:normal;font-variant:normal;font-size:19.00000069px">TAXONOMIC CLASSIFICATION WITH KRAKEN 2</text>
  <path
     fill="none"
     stroke="#000000"
     d="m 716.78,256.3 c 0,7.72 0,16.99 0,25.59"
     id="path3211" />
  <polygon
     fill="#000000"
     stroke="#000000"
     points="712.78,-540.1 709.28,-550.1 716.28,-550.1 "
     id="polygon3213"
     transform="translate(4,832)" />
  <ellipse
     fill="none"
     stroke="#000000"
     cx="1084.78"
     cy="310"
     rx="112.38"
     ry="18"
     id="ellipse3218" />
  <text
     text-anchor="middle"
     x="1084.78"
     y="313.70001"
     font-family="Times, serif"
     font-size="14px"
     id="text3220"
     style="-inkscape-font-specification:Calibri;font-family:Calibri;font-weight:normal;font-style:normal;font-stretch:normal;font-variant:normal;font-size:19.00000069px">ASSEMBLE CONTIGS</text>
  <path
     fill="none"
     stroke="#000000"
     d="m 797.99,254.45 c 61.66,11.73 145.98,27.77 207.23,39.42"
     id="path3225" />
  <polygon
     fill="#000000"
     stroke="#000000"
     points="1011.22,-536.23 1000.75,-534.66 1002.05,-541.54 "
     id="polygon3227"
     transform="translate(4,832)" />
  <ellipse
     fill="none"
     stroke="#000000"
     cx="1084.78"
     cy="382"
     rx="367.73001"
     ry="18"
     id="ellipse3232" />
  <text
     text-anchor="middle"
     x="1084.78"
     y="385.70001"
     font-family="Times, serif"
     font-size="14px"
     id="text3234"
     style="-inkscape-font-specification:Calibri;font-family:Calibri;font-weight:normal;font-style:normal;font-stretch:normal;font-variant:normal;font-size:19.00000069px">FILTERS OUT LOW COVERAGE, SHORT, AND LOW COMPLEXITY CONTIGS</text>
  <path
     fill="none"
     stroke="#000000"
     d="m 1084.78,328.3 c 0,7.72 0,16.99 0,25.59"
     id="path3239" />
  <polygon
     fill="#000000"
     stroke="#000000"
     points="1080.78,-468.1 1077.28,-478.1 1084.28,-478.1 "
     id="polygon3241"
     transform="translate(4,832)" />
  <ellipse
     fill="none"
     stroke="#000000"
     cx="1084.78"
     cy="454"
     rx="152.97"
     ry="18"
     id="ellipse3246" />
  <text
     text-anchor="middle"
     x="1084.78"
     y="457.70001"
     font-family="Times, serif"
     font-size="14px"
     id="text3248"
     style="-inkscape-font-specification:Calibri;font-family:Calibri;font-weight:normal;font-style:normal;font-stretch:normal;font-variant:normal;font-size:19.00000069px">CORRECT SNPS AND INDELS</text>
  <path
     fill="none"
     stroke="#000000"
     d="m 1084.78,400.3 c 0,7.72 0,16.99 0,25.59"
     id="path3253" />
  <polygon
     fill="#000000"
     stroke="#000000"
     points="1080.78,-396.1 1077.28,-406.1 1084.28,-406.1 "
     id="polygon3255"
     transform="translate(4,832)" />
  <ellipse
     fill="none"
     stroke="#000000"
     cx="660.78003"
     cy="526"
     rx="280.25"
     ry="18"
     id="ellipse3260" />
  <text
     text-anchor="middle"
     x="660.78003"
     y="529.70001"
     font-family="Times, serif"
     font-size="14px"
     id="text3262"
     style="-inkscape-font-specification:Calibri;font-family:Calibri;font-weight:normal;font-style:normal;font-stretch:normal;font-variant:normal;font-size:19.00000069px">CALCULATE PAIRED-END AND SINGLE-END COVERAGE</text>
  <path
     fill="none"
     stroke="#000000"
     d="m 1000,469 c -66.94,11.05 -160.72,26.53 -232.72,38.42"
     id="path3267" />
  <polygon
     fill="#000000"
     stroke="#000000"
     points="753.27,-322.93 762.57,-328.01 763.71,-321.11 "
     id="polygon3269"
     transform="translate(4,832)" />
  <ellipse
     fill="none"
     stroke="#000000"
     cx="996.78003"
     cy="526"
     rx="38.189999"
     ry="18"
     id="ellipse3274" />
  <text
     text-anchor="middle"
     x="996.78003"
     y="529.70001"
     font-family="Times, serif"
     font-size="14px"
     id="text3276"
     style="-inkscape-font-specification:Calibri;font-family:Calibri;font-weight:normal;font-style:normal;font-stretch:normal;font-variant:normal;font-size:19.00000069px">MLST</text>
  <path
     fill="none"
     stroke="#000000"
     d="m 1063.48,471.95 c -12.02,9.55 -27.15,21.59 -39.96,31.78"
     id="path3281" />
  <polygon
     fill="#000000"
     stroke="#000000"
     points="1011.5,-321.89 1017.14,-330.85 1021.5,-325.37 "
     id="polygon3283"
     transform="translate(4,832)" />
  <ellipse
     fill="none"
     stroke="#000000"
     cx="1172.78"
     cy="526"
     rx="119.68"
     ry="18"
     id="ellipse3288" />
  <text
     text-anchor="middle"
     x="1172.78"
     y="529.70001"
     font-family="Times, serif"
     font-size="14px"
     id="text3290"
     style="-inkscape-font-specification:Calibri;font-family:Calibri;font-weight:normal;font-style:normal;font-stretch:normal;font-variant:normal;font-size:19.00000069px">ANNOTATE ASSEMBLY</text>
  <path
     fill="none"
     stroke="#000000"
     d="m 1106.08,471.95 c 11.24,8.94 25.21,20.04 37.45,29.78"
     id="path3295" />
  <polygon
     fill="#000000"
     stroke="#000000"
     points="1147.67,-323.79 1137.67,-327.28 1142.03,-332.75 "
     id="polygon3297"
     transform="translate(4,832)" />
  <ellipse
     fill="none"
     stroke="#000000"
     cx="1509.78"
     cy="526"
     rx="194.97"
     ry="18"
     id="ellipse3302" />
  <text
     text-anchor="middle"
     x="1509.78"
     y="529.70001"
     font-family="Times, serif"
     font-size="14px"
     id="text3304"
     style="-inkscape-font-specification:Calibri;font-family:Calibri;font-weight:normal;font-style:normal;font-stretch:normal;font-variant:normal;font-size:19.00000069px">QUALITY ASSESSMENT OF ASSEMBLY</text>
  <path
     fill="none"
     stroke="#000000"
     d="m 1169.76,469 c 68.95,11.35 166.31,27.39 239.19,39.39"
     id="path3309" />
  <polygon
     fill="#000000"
     stroke="#000000"
     points="1415.07,-321.94 1404.63,-320.11 1405.77,-327.02 "
     id="polygon3311"
     transform="translate(4,832)" />
  <ellipse
     fill="none"
     stroke="#000000"
     cx="1169.78"
     cy="598"
     rx="149.47"
     ry="18"
     id="ellipse3316" />
  <text
     text-anchor="middle"
     x="1169.78"
     y="601.70001"
     font-family="Times, serif"
     font-size="14px"
     id="text3318"
     style="-inkscape-font-specification:Calibri;font-family:Calibri;font-weight:normal;font-style:normal;font-stretch:normal;font-variant:normal;font-size:19.00000069px">EXTRACT rRNA SEQUENCES</text>
  <path
     fill="none"
     stroke="#000000"
     d="m 1172.04,544.3 c -0.33,7.72 -0.73,16.99 -1.1,25.59"
     id="path3323" />
  <polygon
     fill="#000000"
     stroke="#000000"
     points="1166.51,-252.1 1163.44,-262.25 1170.44,-261.95 "
     id="polygon3325"
     transform="translate(4,832)" />
  <ellipse
     fill="none"
     stroke="#000000"
     cx="1169.78"
     cy="670"
     rx="120.48"
     ry="18"
     id="ellipse3330" />
  <text
     text-anchor="middle"
     x="1169.78"
     y="673.70001"
     font-family="Times, serif"
     font-size="14px"
     id="text3332"
     style="-inkscape-font-specification:Calibri;font-family:Calibri;font-weight:normal;font-style:normal;font-stretch:normal;font-variant:normal;font-size:19.00000069px">PREDICT rRNA GENES</text>
  <path
     fill="none"
     stroke="#000000"
     d="m 1169.78,616.3 c 0,7.72 0,16.99 0,25.59"
     id="path3337" />
  <polygon
     fill="#000000"
     stroke="#000000"
     points="1165.78,-180.1 1162.28,-190.1 1169.28,-190.1 "
     id="polygon3339"
     transform="translate(4,832)" />
  <ellipse
     fill="none"
     stroke="#000000"
     cx="1169.78"
     cy="742"
     rx="168.97"
     ry="18"
     id="ellipse3344" />
  <text
     text-anchor="middle"
     x="1169.78"
     y="745.70001"
     font-family="Times, serif"
     font-size="14px"
     id="text3346"
     style="-inkscape-font-specification:Calibri;font-family:Calibri;font-weight:normal;font-style:normal;font-stretch:normal;font-variant:normal;font-size:19.00000069px">BLAST PREDICTED rRNA GENES</text>
  <path
     fill="none"
     stroke="#000000"
     d="m 1169.78,688.3 c 0,7.72 0,16.99 0,25.59"
     id="path3351" />
  <polygon
     fill="#000000"
     stroke="#000000"
     points="1165.78,-108.1 1162.28,-118.1 1169.28,-118.1 "
     id="polygon3353"
     transform="translate(4,832)" />
  <ellipse
     fill="none"
     stroke="#000000"
     cx="1169.78"
     cy="814"
     rx="163.27"
     ry="18"
     id="ellipse3358" />
  <text
     text-anchor="middle"
     x="1169.78"
     y="817.70001"
     font-family="Times, serif"
     font-size="14px"
     id="text3360"
     style="-inkscape-font-specification:Calibri;font-family:Calibri;font-weight:normal;font-style:normal;font-stretch:normal;font-variant:normal;font-size:19.00000069px">FILTER OUT TOP BLAST SCORE</text>
  <path
     fill="none"
     stroke="#000000"
     d="m 1169.78,760.3 c 0,7.72 0,16.99 0,25.59"
     id="path3365" />
  <polygon
     fill="#000000"
     stroke="#000000"
     points="1165.78,-36.1 1162.28,-46.1 1169.28,-46.1 "
     id="polygon3367"
     transform="translate(4,832)" />
  <ellipse
     fill="none"
     stroke="#000000"
     cx="1511.78"
     cy="598"
     rx="174.67"
     ry="18"
     id="ellipse3372" />
  <text
     text-anchor="middle"
     x="1511.78"
     y="601.70001"
     font-family="Times, serif"
     font-size="14px"
     id="text3374"
     style="-inkscape-font-specification:Calibri;font-family:Calibri;font-weight:normal;font-style:normal;font-stretch:normal;font-variant:normal;font-size:19.00000069px">CALCULATE GENOME COVERAGE</text>
  <path
     fill="none"
     stroke="#000000"
     d="m 1510.27,544.3 c 0.22,7.72 0.49,16.99 0.74,25.59"
     id="path3379" />
  <polygon
     fill="#000000"
     stroke="#000000"
     points="1507.29,-252.1 1503.51,-262 1510.5,-262.2 "
     id="polygon3381"
     transform="translate(4,832)" />
</svg>
